<svg xmlns="http://www.w3.org/2000/svg" version="1.1" xmlns:xlink="http://www.w3.org/1999/xlink" xmlns:svgjs="http://svgjs.dev/svgjs" width="1000" height="1000" viewBox="0 0 1000 1000"><g transform="matrix(1,0,0,1,0,0)"><svg viewBox="0 0 280 280" data-background-color="#0080ff" preserveAspectRatio="xMidYMid meet" height="1000" width="1000" xmlns="http://www.w3.org/2000/svg" xmlns:xlink="http://www.w3.org/1999/xlink"><g id="tight-bounds" transform="matrix(1,0,0,1,0,0)"><svg viewBox="0 0 280 280" height="280" width="280"><g><svg viewBox="0 0 280 280" height="280" width="280"><g><svg viewBox="0 0 280 280" height="280" width="280"><g id="textblocktransform"><svg viewBox="0 0 280 280" height="280" width="280" id="textblock"><g><svg viewBox="0 0 280 280" height="280" width="280"><g transform="matrix(1,0,0,1,74.00336708925556,74.00336708925556)"><svg viewBox="0 0 131.99326582148888 131.99326582148888" height="131.99326582148888" width="131.99326582148888"><g><svg xmlns="http://www.w3.org/2000/svg" version="1.1" data-icon="circle-check" viewBox="0 0 16 16" x="0" y="0" height="131.99326582148888" width="131.99326582148888" class="icon-o-0" data-fill-palette-color="accent" id="o-0"><path d="M8 0c-4.418 0-8 3.582-8 8s3.582 8 8 8 8-3.582 8-8-3.582-8-8-8z m3 4.594l1.406 1.406-5.406 5.406-3.406-3.406 1.406-1.406 2 2 4-4z" fill="#ffffff" data-fill-palette-color="accent"></path></svg></g></svg></g><g><path d="M8.615 87.767l2.977-8.287-3.947-1.418-7.645 21.278 3.947 1.418 2.947-8.201 22.878 8.22 1.721-4.79z" fill="#ffffff" data-fill-palette-color="primary"></path><path d="M98.859 15.466v0l-1.61-3.606c-0.519-1.128-1.106-2.16-1.761-3.094-0.664-0.937-1.391-1.757-2.181-2.46v0c-0.723-0.636-1.498-1.174-2.326-1.614-0.819-0.437-1.683-0.739-2.59-0.906v0c-0.913-0.18-1.867-0.211-2.862-0.093-0.996 0.118-2.001 0.403-3.018 0.857v0c-1.01 0.451-1.88 1-2.61 1.645-0.724 0.643-1.317 1.361-1.78 2.156v0c-0.464 0.809-0.804 1.671-1.02 2.585-0.213 0.92-0.311 1.875-0.293 2.862v0c0.018 1.04 0.16 2.106 0.425 3.2 0.268 1.099 0.641 2.2 1.118 3.302v0l1.611 3.607c0.48 1.042 1.018 2.005 1.615 2.891 0.596 0.886 1.249 1.672 1.957 2.359v0c0.758 0.732 1.564 1.338 2.418 1.819 0.863 0.484 1.746 0.83 2.648 1.036v0c0.931 0.186 1.884 0.225 2.861 0.116 0.983-0.112 1.986-0.396 3.009-0.853v0c0.979-0.437 1.832-0.967 2.557-1.588 0.72-0.619 1.325-1.309 1.817-2.072v0c0.513-0.831 0.893-1.737 1.14-2.717 0.255-0.976 0.378-1.983 0.368-3.018v0c-0.013-1.027-0.148-2.078-0.404-3.153-0.254-1.083-0.616-2.17-1.089-3.261zM92.51 13.932v0l1.627 3.643c0.288 0.644 0.538 1.287 0.75 1.929 0.206 0.644 0.355 1.261 0.448 1.851v0c0.123 0.725 0.163 1.414 0.12 2.065-0.044 0.651-0.188 1.243-0.433 1.777v0c-0.203 0.477-0.493 0.901-0.871 1.27-0.378 0.369-0.848 0.68-1.413 0.932v0c-0.583 0.26-1.137 0.4-1.663 0.419-0.526 0.02-1.028-0.054-1.503-0.22v0c-0.527-0.181-1.042-0.486-1.546-0.915-0.501-0.423-0.964-0.919-1.389-1.487v0c-0.377-0.478-0.725-1.007-1.043-1.586-0.324-0.576-0.628-1.18-0.91-1.812v0l-1.627-3.644c-0.293-0.657-0.547-1.309-0.762-1.956-0.221-0.645-0.385-1.27-0.493-1.876v0c-0.144-0.738-0.194-1.433-0.15-2.085 0.046-0.645 0.197-1.24 0.451-1.785v0c0.2-0.417 0.475-0.792 0.824-1.126 0.355-0.337 0.799-0.624 1.332-0.863v0c0.552-0.246 1.08-0.386 1.586-0.418 0.506-0.033 0.993 0.01 1.461 0.128v0c0.576 0.174 1.125 0.456 1.65 0.846 0.527 0.397 1.024 0.877 1.491 1.441v0c0.398 0.476 0.77 1.009 1.115 1.599 0.339 0.592 0.655 1.216 0.948 1.873z" fill="#ffffff" data-fill-palette-color="primary"></path><path d="M189.37 1.003l-10.838 26.364 6.883 2.83c1.193 0.49 2.369 0.805 3.53 0.945 1.167 0.142 2.29 0.116 3.367-0.08v0c0.947-0.161 1.876-0.458 2.788-0.89 0.914-0.439 1.772-0.981 2.573-1.628v0c0.837-0.698 1.603-1.535 2.298-2.511 0.695-0.976 1.289-2.064 1.782-3.263v0l0.879-2.138c0.516-1.255 0.866-2.491 1.05-3.706 0.187-1.222 0.216-2.399 0.087-3.531v0c-0.123-1.004-0.368-1.978-0.736-2.922-0.368-0.944-0.869-1.814-1.503-2.61v0c-0.645-0.859-1.425-1.639-2.34-2.338-0.91-0.697-1.954-1.288-3.135-1.773v0zM184.86 25.522l7.695-18.718 1.921 0.789c0.659 0.271 1.24 0.598 1.743 0.981 0.497 0.38 0.92 0.796 1.27 1.249v0c0.471 0.604 0.817 1.279 1.039 2.023 0.226 0.753 0.331 1.541 0.316 2.364v0c-0.017 0.683-0.108 1.397-0.276 2.143-0.173 0.743-0.413 1.503-0.717 2.281v0l-0.89 2.165c-0.345 0.805-0.719 1.535-1.122 2.192-0.406 0.648-0.835 1.22-1.288 1.716v0c-0.551 0.573-1.128 1.04-1.732 1.401-0.61 0.358-1.234 0.601-1.873 0.727v0c-0.618 0.128-1.261 0.157-1.929 0.088-0.662-0.067-1.342-0.243-2.039-0.53v0z" fill="#ffffff" data-fill-palette-color="primary"></path><path d="M266.021 103.814v0l3.691-1.405c1.156-0.454 2.219-0.982 3.188-1.584 0.973-0.61 1.833-1.289 2.579-2.038v0c0.676-0.686 1.257-1.43 1.743-2.232 0.482-0.794 0.832-1.638 1.051-2.535v0c0.231-0.901 0.315-1.852 0.254-2.852-0.061-1.001-0.29-2.021-0.686-3.061v0c-0.394-1.034-0.892-1.933-1.496-2.699-0.601-0.759-1.285-1.392-2.051-1.899v0c-0.782-0.509-1.623-0.896-2.524-1.163-0.907-0.265-1.854-0.416-2.841-0.455v0c-1.039-0.04-2.112 0.041-3.218 0.245-1.113 0.206-2.233 0.516-3.361 0.93v0l-3.691 1.405c-1.067 0.421-2.06 0.904-2.978 1.45-0.918 0.545-1.74 1.152-2.466 1.82v0c-0.773 0.716-1.424 1.486-1.952 2.312-0.532 0.834-0.927 1.696-1.184 2.585v0c-0.239 0.919-0.331 1.869-0.276 2.851 0.056 0.988 0.284 2.005 0.682 3.051v0c0.381 1.002 0.862 1.883 1.441 2.643 0.577 0.753 1.233 1.397 1.966 1.932v0c0.801 0.559 1.684 0.989 2.648 1.29 0.96 0.31 1.958 0.489 2.994 0.538v0c1.027 0.045 2.083-0.03 3.17-0.226 1.096-0.192 2.201-0.493 3.317-0.903zM267.911 97.561v0l-3.73 1.42c-0.66 0.251-1.316 0.464-1.968 0.64-0.655 0.169-1.279 0.284-1.873 0.342v0c-0.731 0.082-1.421 0.083-2.069 0.003-0.648-0.08-1.231-0.258-1.749-0.532v0c-0.465-0.23-0.871-0.543-1.219-0.941-0.347-0.398-0.631-0.885-0.851-1.463v0c-0.227-0.596-0.335-1.158-0.325-1.684 0.01-0.527 0.112-1.023 0.305-1.489v0c0.21-0.516 0.544-1.013 1.001-1.492 0.45-0.476 0.971-0.911 1.563-1.302v0c0.499-0.35 1.046-0.667 1.642-0.952 0.594-0.291 1.214-0.56 1.86-0.806v0l3.73-1.42c0.672-0.256 1.338-0.473 1.996-0.651 0.656-0.184 1.29-0.313 1.901-0.386v0c0.745-0.102 1.442-0.113 2.09-0.033 0.641 0.083 1.227 0.266 1.756 0.552v0c0.405 0.224 0.764 0.519 1.078 0.886 0.316 0.373 0.578 0.833 0.786 1.378v0c0.215 0.565 0.324 1.1 0.329 1.607 0.004 0.507-0.066 0.991-0.21 1.452v0c-0.206 0.565-0.519 1.098-0.938 1.599-0.426 0.503-0.933 0.972-1.523 1.408v0c-0.498 0.371-1.051 0.712-1.659 1.023-0.61 0.305-1.251 0.585-1.923 0.841z" fill="#ffffff" data-fill-palette-color="primary"></path><path d="M111.172 250.232l8.553 2.561 1.218-4.067-21.953-6.572-1.217 4.066 8.465 2.535-7.069 23.611 4.935 1.477z" fill="#ffffff" data-fill-palette-color="primary"></path><path d="M139.158 266.961v0l0.433-3.988c0.122-1.25 0.134-2.453 0.034-3.611-0.1-1.151-0.316-2.239-0.648-3.265v0c-0.309-0.921-0.714-1.784-1.214-2.59-0.5-0.805-1.102-1.512-1.807-2.122v0c-0.704-0.623-1.522-1.138-2.453-1.546-0.932-0.408-1.958-0.674-3.078-0.796v0c-1.12-0.122-2.162-0.085-3.125 0.111-0.963 0.196-1.849 0.523-2.657 0.981v0c-0.823 0.47-1.562 1.052-2.217 1.746-0.656 0.693-1.232 1.477-1.73 2.352v0c-0.509 0.914-0.926 1.92-1.25 3.018-0.324 1.098-0.559 2.25-0.703 3.456v0l-0.434 3.988c-0.112 1.155-0.134 2.272-0.067 3.351 0.067 1.079 0.236 2.101 0.507 3.066v0c0.284 1.028 0.68 1.972 1.187 2.832 0.507 0.861 1.105 1.612 1.793 2.253v0c0.716 0.638 1.529 1.16 2.441 1.566 0.912 0.406 1.934 0.671 3.067 0.794v0c1.08 0.117 2.093 0.088 3.041-0.089 0.954-0.176 1.84-0.472 2.657-0.889v0c0.877-0.465 1.672-1.061 2.386-1.789 0.721-0.727 1.342-1.547 1.864-2.459v0c0.514-0.9 0.936-1.888 1.265-2.966 0.329-1.077 0.565-2.212 0.708-3.404zM134.384 262.366v0l-0.438 4.028c-0.077 0.708-0.186 1.396-0.327 2.064-0.148 0.673-0.332 1.292-0.55 1.855v0c-0.267 0.701-0.588 1.325-0.961 1.872-0.366 0.54-0.797 0.985-1.292 1.334v0c-0.416 0.31-0.884 0.532-1.404 0.667-0.519 0.128-1.089 0.158-1.709 0.09v0c-0.641-0.07-1.2-0.229-1.679-0.479-0.471-0.249-0.87-0.572-1.195-0.97v0c-0.37-0.429-0.664-0.956-0.883-1.58-0.225-0.632-0.38-1.304-0.467-2.017v0c-0.077-0.609-0.11-1.248-0.099-1.916 0.012-0.675 0.056-1.359 0.131-2.054v0l0.438-4.028c0.078-0.722 0.188-1.42 0.33-2.094 0.142-0.681 0.317-1.314 0.524-1.899v0c0.256-0.723 0.567-1.355 0.933-1.895 0.373-0.547 0.811-0.994 1.313-1.343v0c0.39-0.258 0.823-0.446 1.301-0.565 0.476-0.112 1.011-0.136 1.605-0.071v0c0.607 0.066 1.141 0.213 1.601 0.44 0.459 0.234 0.865 0.521 1.217 0.86v0c0.416 0.448 0.754 0.98 1.015 1.595 0.255 0.608 0.445 1.281 0.569 2.017v0c0.103 0.619 0.155 1.276 0.154 1.973-0.007 0.689-0.049 1.394-0.127 2.116z" fill="#ffffff" data-fill-palette-color="primary"></path><path d="M141.863 250.193l2.248 28.804 7.521-0.587c1.306-0.102 2.518-0.357 3.637-0.764 1.112-0.407 2.115-0.941 3.01-1.603v0c0.772-0.578 1.473-1.272 2.104-2.084 0.624-0.811 1.151-1.693 1.58-2.646v0c0.438-1.014 0.75-2.125 0.935-3.33 0.186-1.199 0.227-2.451 0.126-3.757v0l-0.183-2.335c-0.107-1.374-0.357-2.654-0.749-3.842-0.392-1.188-0.902-2.265-1.528-3.23v0c-0.577-0.854-1.246-1.622-2.008-2.304-0.761-0.683-1.611-1.239-2.55-1.67v0c-0.977-0.482-2.039-0.831-3.186-1.048-1.14-0.217-2.356-0.276-3.649-0.175v0zM148.994 274.439l-1.597-20.461 2.101-0.164c0.724-0.057 1.397-0.024 2.019 0.098 0.628 0.114 1.204 0.297 1.728 0.549v0c0.706 0.326 1.33 0.778 1.872 1.355 0.542 0.577 0.996 1.243 1.361 1.997v0c0.301 0.623 0.541 1.309 0.722 2.058 0.188 0.748 0.321 1.544 0.401 2.388v0l0.185 2.375c0.056 0.887 0.049 1.718-0.019 2.493-0.062 0.774-0.187 1.485-0.375 2.133v0c-0.232 0.774-0.543 1.462-0.932 2.064-0.382 0.602-0.836 1.11-1.361 1.526v0c-0.5 0.393-1.064 0.709-1.693 0.949-0.634 0.247-1.334 0.4-2.098 0.459v0z" fill="#ffffff" data-fill-palette-color="primary"></path><path d="M186.305 258.48v0l-1.076-3.864c-0.35-1.206-0.786-2.328-1.308-3.366-0.52-1.032-1.125-1.962-1.814-2.792v0c-0.629-0.741-1.325-1.392-2.088-1.954-0.763-0.562-1.584-0.996-2.465-1.3v0c-0.885-0.317-1.835-0.492-2.852-0.526-1.017-0.034-2.068 0.101-3.154 0.403v0c-1.085 0.302-2.039 0.723-2.86 1.263-0.822 0.539-1.523 1.171-2.103 1.896v0c-0.589 0.742-1.06 1.557-1.412 2.444-0.352 0.887-0.596 1.829-0.734 2.826v0c-0.134 1.038-0.147 2.126-0.041 3.266 0.106 1.14 0.316 2.297 0.629 3.471v0l1.077 3.863c0.325 1.114 0.718 2.16 1.181 3.138 0.463 0.977 0.998 1.864 1.608 2.659v0c0.645 0.849 1.363 1.579 2.153 2.189 0.79 0.611 1.624 1.087 2.501 1.428v0c0.901 0.327 1.851 0.509 2.848 0.548 0.997 0.039 2.045-0.094 3.143-0.401v0c1.046-0.292 1.976-0.695 2.791-1.211 0.821-0.518 1.533-1.121 2.137-1.811v0c0.642-0.757 1.159-1.605 1.552-2.546 0.4-0.943 0.673-1.935 0.819-2.976v0c0.144-1.026 0.168-2.101 0.074-3.223-0.094-1.122-0.296-2.264-0.605-3.424zM180.167 255.985v0l1.088 3.902c0.191 0.686 0.345 1.366 0.462 2.038 0.112 0.68 0.171 1.323 0.178 1.927v0c0.012 0.751-0.054 1.449-0.198 2.095-0.139 0.638-0.374 1.21-0.705 1.718v0c-0.271 0.442-0.623 0.822-1.056 1.14-0.435 0.311-0.953 0.551-1.554 0.718v0c-0.621 0.173-1.2 0.232-1.737 0.178-0.53-0.057-1.02-0.209-1.469-0.457v0c-0.503-0.262-0.971-0.642-1.407-1.141-0.443-0.503-0.837-1.07-1.181-1.699v0c-0.298-0.537-0.565-1.118-0.803-1.742-0.239-0.631-0.453-1.283-0.64-1.957v0l-1.088-3.903c-0.195-0.7-0.352-1.389-0.47-2.067-0.12-0.685-0.193-1.338-0.219-1.957v0c-0.03-0.767 0.024-1.469 0.164-2.107 0.144-0.646 0.385-1.224 0.721-1.733v0c0.266-0.384 0.599-0.72 0.998-1.008 0.401-0.281 0.889-0.501 1.465-0.661v0c0.588-0.164 1.138-0.226 1.649-0.185 0.513 0.047 0.996 0.163 1.45 0.346v0c0.552 0.262 1.063 0.63 1.534 1.105 0.462 0.47 0.888 1.024 1.277 1.663v0c0.326 0.536 0.617 1.128 0.875 1.774 0.249 0.642 0.472 1.313 0.666 2.013z" fill="#ffffff" data-fill-palette-color="primary"></path><path d="M1.381 139.431c0-6.095 4.941-11.037 11.037-11.036 6.095 0 11.037 4.941 11.036 11.036 0 6.095-4.941 11.037-11.036 11.037-6.095 0-11.037-4.941-11.037-11.037z" fill="#ffffff" data-fill-palette-color="primary"></path><path d="M257.927 139.431c0-6.095 4.941-11.037 11.036-11.036 6.095 0 11.037 4.941 11.037 11.036 0 6.095-4.941 11.037-11.037 11.037-6.095 0-11.037-4.941-11.036-11.037z" fill="#ffffff" data-fill-palette-color="primary"></path></g></svg></g></svg></g></svg></g></svg></g><defs></defs></svg><rect width="280" height="280" fill="none" stroke="none" visibility="hidden"></rect></g></svg></g></svg>